<mxfile host="app.diagrams.net" agent="Mozilla/5.0 (Macintosh; Intel Mac OS X 10_15_7) AppleWebKit/537.36 (KHTML, like Gecko) Chrome/133.0.0.0 Safari/537.36" version="26.1.0" pages="4">
  <diagram name="WORDPRESS" id="NdUuWEBQtOs4A5N5wTtD">
    <mxGraphModel dx="954" dy="530" grid="1" gridSize="10" guides="1" tooltips="1" connect="1" arrows="1" fold="1" page="1" pageScale="1" pageWidth="827" pageHeight="1169" math="0" shadow="0">
      <root>
        <mxCell id="0" />
        <mxCell id="1" parent="0" />
        <mxCell id="XfD0HRCojVIyySsO1Wtb-1" value="VPC" style="points=[[0,0],[0.25,0],[0.5,0],[0.75,0],[1,0],[1,0.25],[1,0.5],[1,0.75],[1,1],[0.75,1],[0.5,1],[0.25,1],[0,1],[0,0.75],[0,0.5],[0,0.25]];outlineConnect=0;gradientColor=none;html=1;whiteSpace=wrap;fontSize=12;fontStyle=0;container=1;pointerEvents=0;collapsible=0;recursiveResize=0;shape=mxgraph.aws4.group;grIcon=mxgraph.aws4.group_vpc2;strokeColor=#8C4FFF;fillColor=none;verticalAlign=top;align=left;spacingLeft=30;fontColor=#AAB7B8;dashed=0;" vertex="1" parent="1">
          <mxGeometry x="80" y="90" width="670" height="410" as="geometry" />
        </mxCell>
        <mxCell id="XfD0HRCojVIyySsO1Wtb-2" value="1A" style="fillColor=none;strokeColor=#147EBA;dashed=1;verticalAlign=top;fontStyle=0;fontColor=#147EBA;whiteSpace=wrap;html=1;" vertex="1" parent="XfD0HRCojVIyySsO1Wtb-1">
          <mxGeometry x="100" y="40" width="470" height="340" as="geometry" />
        </mxCell>
        <mxCell id="hYypIXCOhWIALHZO6jhF-3" style="edgeStyle=orthogonalEdgeStyle;rounded=0;orthogonalLoop=1;jettySize=auto;html=1;entryX=0;entryY=0.5;entryDx=0;entryDy=0;" edge="1" parent="XfD0HRCojVIyySsO1Wtb-1" source="XfD0HRCojVIyySsO1Wtb-5" target="hYypIXCOhWIALHZO6jhF-1">
          <mxGeometry relative="1" as="geometry" />
        </mxCell>
        <mxCell id="hYypIXCOhWIALHZO6jhF-4" style="edgeStyle=orthogonalEdgeStyle;rounded=0;orthogonalLoop=1;jettySize=auto;html=1;exitX=1;exitY=0.5;exitDx=0;exitDy=0;exitPerimeter=0;" edge="1" parent="XfD0HRCojVIyySsO1Wtb-1" source="XfD0HRCojVIyySsO1Wtb-5" target="hYypIXCOhWIALHZO6jhF-2">
          <mxGeometry relative="1" as="geometry">
            <Array as="points">
              <mxPoint x="228" y="260" />
            </Array>
          </mxGeometry>
        </mxCell>
        <mxCell id="XfD0HRCojVIyySsO1Wtb-5" value="" style="sketch=0;points=[[0,0,0],[0.25,0,0],[0.5,0,0],[0.75,0,0],[1,0,0],[0,1,0],[0.25,1,0],[0.5,1,0],[0.75,1,0],[1,1,0],[0,0.25,0],[0,0.5,0],[0,0.75,0],[1,0.25,0],[1,0.5,0],[1,0.75,0]];outlineConnect=0;fontColor=#232F3E;fillColor=#ED7100;strokeColor=#ffffff;dashed=0;verticalLabelPosition=bottom;verticalAlign=top;align=center;html=1;fontSize=12;fontStyle=0;aspect=fixed;shape=mxgraph.aws4.resourceIcon;resIcon=mxgraph.aws4.ec2;" vertex="1" parent="XfD0HRCojVIyySsO1Wtb-1">
          <mxGeometry x="150" y="120" width="78" height="78" as="geometry" />
        </mxCell>
        <mxCell id="hYypIXCOhWIALHZO6jhF-1" value="Front End - PHP" style="whiteSpace=wrap;html=1;" vertex="1" parent="XfD0HRCojVIyySsO1Wtb-1">
          <mxGeometry x="390" y="129" width="120" height="60" as="geometry" />
        </mxCell>
        <mxCell id="hYypIXCOhWIALHZO6jhF-2" value="Back END - Maria DB" style="whiteSpace=wrap;html=1;" vertex="1" parent="XfD0HRCojVIyySsO1Wtb-1">
          <mxGeometry x="390" y="240" width="120" height="60" as="geometry" />
        </mxCell>
        <mxCell id="hYypIXCOhWIALHZO6jhF-5" value="&lt;font style=&quot;font-size: 20px;&quot;&gt;This Architecture will loose you the data in case of AZ failure&lt;/font&gt;" style="text;html=1;align=center;verticalAlign=middle;resizable=0;points=[];autosize=1;strokeColor=none;fillColor=none;" vertex="1" parent="1">
          <mxGeometry x="120" y="525" width="560" height="40" as="geometry" />
        </mxCell>
      </root>
    </mxGraphModel>
  </diagram>
  <diagram name="Multi-Tier" id="OB_1DsMMzITabMdg2L8S">
    <mxGraphModel dx="954" dy="530" grid="1" gridSize="10" guides="1" tooltips="1" connect="1" arrows="1" fold="1" page="1" pageScale="1" pageWidth="827" pageHeight="1169" math="0" shadow="0">
      <root>
        <mxCell id="7JkNAGcG_IbLKz5NbMYe-0" />
        <mxCell id="7JkNAGcG_IbLKz5NbMYe-1" parent="7JkNAGcG_IbLKz5NbMYe-0" />
        <mxCell id="7JkNAGcG_IbLKz5NbMYe-2" value="VPC" style="points=[[0,0],[0.25,0],[0.5,0],[0.75,0],[1,0],[1,0.25],[1,0.5],[1,0.75],[1,1],[0.75,1],[0.5,1],[0.25,1],[0,1],[0,0.75],[0,0.5],[0,0.25]];outlineConnect=0;gradientColor=none;html=1;whiteSpace=wrap;fontSize=12;fontStyle=0;container=1;pointerEvents=0;collapsible=0;recursiveResize=0;shape=mxgraph.aws4.group;grIcon=mxgraph.aws4.group_vpc2;strokeColor=#8C4FFF;fillColor=none;verticalAlign=top;align=left;spacingLeft=30;fontColor=#AAB7B8;dashed=0;" parent="7JkNAGcG_IbLKz5NbMYe-1" vertex="1">
          <mxGeometry x="80" y="50" width="670" height="450" as="geometry" />
        </mxCell>
        <mxCell id="7JkNAGcG_IbLKz5NbMYe-3" value="1A" style="fillColor=none;strokeColor=#147EBA;dashed=1;verticalAlign=top;fontStyle=0;fontColor=#147EBA;whiteSpace=wrap;html=1;" parent="7JkNAGcG_IbLKz5NbMYe-2" vertex="1">
          <mxGeometry x="40" y="40" width="170" height="370" as="geometry" />
        </mxCell>
        <mxCell id="7JkNAGcG_IbLKz5NbMYe-4" value="1B" style="fillColor=none;strokeColor=#147EBA;dashed=1;verticalAlign=top;fontStyle=0;fontColor=#147EBA;whiteSpace=wrap;html=1;" parent="7JkNAGcG_IbLKz5NbMYe-2" vertex="1">
          <mxGeometry x="280" y="40" width="170" height="370" as="geometry" />
        </mxCell>
        <mxCell id="7JkNAGcG_IbLKz5NbMYe-5" value="" style="sketch=0;points=[[0,0,0],[0.25,0,0],[0.5,0,0],[0.75,0,0],[1,0,0],[0,1,0],[0.25,1,0],[0.5,1,0],[0.75,1,0],[1,1,0],[0,0.25,0],[0,0.5,0],[0,0.75,0],[1,0.25,0],[1,0.5,0],[1,0.75,0]];outlineConnect=0;fontColor=#232F3E;fillColor=#ED7100;strokeColor=#ffffff;dashed=0;verticalLabelPosition=bottom;verticalAlign=top;align=center;html=1;fontSize=12;fontStyle=0;aspect=fixed;shape=mxgraph.aws4.resourceIcon;resIcon=mxgraph.aws4.ec2;" parent="7JkNAGcG_IbLKz5NbMYe-2" vertex="1">
          <mxGeometry x="86" y="80" width="78" height="78" as="geometry" />
        </mxCell>
        <mxCell id="sx7BqdIWQbxqHbR7AyCH-0" value="" style="sketch=0;outlineConnect=0;fontColor=#232F3E;gradientColor=none;fillColor=#C925D1;strokeColor=none;dashed=0;verticalLabelPosition=bottom;verticalAlign=top;align=center;html=1;fontSize=12;fontStyle=0;aspect=fixed;pointerEvents=1;shape=mxgraph.aws4.rds_instance;" parent="7JkNAGcG_IbLKz5NbMYe-2" vertex="1">
          <mxGeometry x="86" y="260" width="78" height="78" as="geometry" />
        </mxCell>
        <mxCell id="K11FRhGvOFVKo39EKJVz-2" style="edgeStyle=orthogonalEdgeStyle;rounded=0;orthogonalLoop=1;jettySize=auto;html=1;" parent="7JkNAGcG_IbLKz5NbMYe-2" source="K11FRhGvOFVKo39EKJVz-0" target="sx7BqdIWQbxqHbR7AyCH-0" edge="1">
          <mxGeometry relative="1" as="geometry" />
        </mxCell>
        <mxCell id="K11FRhGvOFVKo39EKJVz-0" value="Front End - PHP" style="whiteSpace=wrap;html=1;" parent="7JkNAGcG_IbLKz5NbMYe-2" vertex="1">
          <mxGeometry x="65" y="158" width="120" height="60" as="geometry" />
        </mxCell>
        <mxCell id="K11FRhGvOFVKo39EKJVz-7" style="edgeStyle=orthogonalEdgeStyle;rounded=0;orthogonalLoop=1;jettySize=auto;html=1;entryX=0;entryY=0.5;entryDx=0;entryDy=0;" parent="7JkNAGcG_IbLKz5NbMYe-2" source="K11FRhGvOFVKo39EKJVz-1" target="K11FRhGvOFVKo39EKJVz-4" edge="1">
          <mxGeometry relative="1" as="geometry" />
        </mxCell>
        <mxCell id="K11FRhGvOFVKo39EKJVz-8" style="edgeStyle=orthogonalEdgeStyle;rounded=0;orthogonalLoop=1;jettySize=auto;html=1;entryX=0;entryY=0.5;entryDx=0;entryDy=0;" parent="7JkNAGcG_IbLKz5NbMYe-2" source="K11FRhGvOFVKo39EKJVz-1" target="62_l_0oJhyXoC6BQIwoD-10" edge="1">
          <mxGeometry relative="1" as="geometry">
            <mxPoint x="305" y="368" as="targetPoint" />
          </mxGeometry>
        </mxCell>
        <mxCell id="K11FRhGvOFVKo39EKJVz-1" value="Backend - DB" style="whiteSpace=wrap;html=1;" parent="7JkNAGcG_IbLKz5NbMYe-2" vertex="1">
          <mxGeometry x="65" y="338" width="120" height="60" as="geometry" />
        </mxCell>
        <mxCell id="K11FRhGvOFVKo39EKJVz-3" value="" style="sketch=0;outlineConnect=0;fontColor=#232F3E;gradientColor=none;fillColor=#C925D1;strokeColor=none;dashed=0;verticalLabelPosition=bottom;verticalAlign=top;align=center;html=1;fontSize=12;fontStyle=0;aspect=fixed;pointerEvents=1;shape=mxgraph.aws4.rds_instance_alt;" parent="7JkNAGcG_IbLKz5NbMYe-2" vertex="1">
          <mxGeometry x="326" y="90" width="78" height="78" as="geometry" />
        </mxCell>
        <mxCell id="K11FRhGvOFVKo39EKJVz-4" value="Stand BY" style="whiteSpace=wrap;html=1;" parent="7JkNAGcG_IbLKz5NbMYe-2" vertex="1">
          <mxGeometry x="305" y="168" width="120" height="60" as="geometry" />
        </mxCell>
        <mxCell id="62_l_0oJhyXoC6BQIwoD-7" value="1C" style="fillColor=none;strokeColor=#147EBA;dashed=1;verticalAlign=top;fontStyle=0;fontColor=#147EBA;whiteSpace=wrap;html=1;" parent="7JkNAGcG_IbLKz5NbMYe-2" vertex="1">
          <mxGeometry x="470" y="40" width="170" height="370" as="geometry" />
        </mxCell>
        <mxCell id="62_l_0oJhyXoC6BQIwoD-10" value="Read Replicas" style="whiteSpace=wrap;html=1;" parent="7JkNAGcG_IbLKz5NbMYe-2" vertex="1">
          <mxGeometry x="495" y="338" width="120" height="60" as="geometry" />
        </mxCell>
        <mxCell id="62_l_0oJhyXoC6BQIwoD-11" value="" style="sketch=0;outlineConnect=0;fontColor=#232F3E;gradientColor=none;fillColor=#C925D1;strokeColor=none;dashed=0;verticalLabelPosition=bottom;verticalAlign=top;align=center;html=1;fontSize=12;fontStyle=0;aspect=fixed;pointerEvents=1;shape=mxgraph.aws4.rds_instance_alt;" parent="7JkNAGcG_IbLKz5NbMYe-2" vertex="1">
          <mxGeometry x="516" y="260" width="78" height="78" as="geometry" />
        </mxCell>
        <mxCell id="62_l_0oJhyXoC6BQIwoD-0" value="&lt;font style=&quot;font-size: 20px;&quot;&gt;This Architecture will help you protect the data in case AZ failure&lt;/font&gt;" style="text;html=1;align=center;verticalAlign=middle;resizable=0;points=[];autosize=1;strokeColor=none;fillColor=none;" parent="7JkNAGcG_IbLKz5NbMYe-1" vertex="1">
          <mxGeometry x="105" y="525" width="590" height="40" as="geometry" />
        </mxCell>
      </root>
    </mxGraphModel>
  </diagram>
  <diagram name="SG to SG" id="3HLT6z6C6QbCYhNlFOWf">
    <mxGraphModel dx="954" dy="530" grid="1" gridSize="10" guides="1" tooltips="1" connect="1" arrows="1" fold="1" page="1" pageScale="1" pageWidth="827" pageHeight="1169" math="0" shadow="0">
      <root>
        <mxCell id="joxAX7BLMsEu5LdcDJ3S-0" />
        <mxCell id="joxAX7BLMsEu5LdcDJ3S-1" parent="joxAX7BLMsEu5LdcDJ3S-0" />
        <mxCell id="joxAX7BLMsEu5LdcDJ3S-2" value="VPC" style="points=[[0,0],[0.25,0],[0.5,0],[0.75,0],[1,0],[1,0.25],[1,0.5],[1,0.75],[1,1],[0.75,1],[0.5,1],[0.25,1],[0,1],[0,0.75],[0,0.5],[0,0.25]];outlineConnect=0;gradientColor=none;html=1;whiteSpace=wrap;fontSize=12;fontStyle=0;container=1;pointerEvents=0;collapsible=0;recursiveResize=0;shape=mxgraph.aws4.group;grIcon=mxgraph.aws4.group_vpc2;strokeColor=#8C4FFF;fillColor=none;verticalAlign=top;align=left;spacingLeft=30;fontColor=#AAB7B8;dashed=0;" vertex="1" parent="joxAX7BLMsEu5LdcDJ3S-1">
          <mxGeometry x="80" y="50" width="670" height="450" as="geometry" />
        </mxCell>
        <mxCell id="joxAX7BLMsEu5LdcDJ3S-5" value="" style="sketch=0;points=[[0,0,0],[0.25,0,0],[0.5,0,0],[0.75,0,0],[1,0,0],[0,1,0],[0.25,1,0],[0.5,1,0],[0.75,1,0],[1,1,0],[0,0.25,0],[0,0.5,0],[0,0.75,0],[1,0.25,0],[1,0.5,0],[1,0.75,0]];outlineConnect=0;fontColor=#232F3E;fillColor=#ED7100;strokeColor=#ffffff;dashed=0;verticalLabelPosition=bottom;verticalAlign=top;align=center;html=1;fontSize=12;fontStyle=0;aspect=fixed;shape=mxgraph.aws4.resourceIcon;resIcon=mxgraph.aws4.ec2;" vertex="1" parent="joxAX7BLMsEu5LdcDJ3S-2">
          <mxGeometry x="110" y="149" width="78" height="78" as="geometry" />
        </mxCell>
        <mxCell id="joxAX7BLMsEu5LdcDJ3S-12" value="" style="sketch=0;outlineConnect=0;fontColor=#232F3E;gradientColor=none;fillColor=#C925D1;strokeColor=none;dashed=0;verticalLabelPosition=bottom;verticalAlign=top;align=center;html=1;fontSize=12;fontStyle=0;aspect=fixed;pointerEvents=1;shape=mxgraph.aws4.rds_instance_alt;" vertex="1" parent="joxAX7BLMsEu5LdcDJ3S-2">
          <mxGeometry x="480" y="149" width="78" height="78" as="geometry" />
        </mxCell>
        <mxCell id="mP0kXm6_bTcr9osm08DT-1" value="RDS SG" style="fillColor=none;strokeColor=#DD3522;verticalAlign=top;fontStyle=0;fontColor=#DD3522;whiteSpace=wrap;html=1;" vertex="1" parent="joxAX7BLMsEu5LdcDJ3S-2">
          <mxGeometry x="414" y="80" width="210" height="330" as="geometry" />
        </mxCell>
        <mxCell id="mP0kXm6_bTcr9osm08DT-4" style="edgeStyle=orthogonalEdgeStyle;rounded=0;orthogonalLoop=1;jettySize=auto;html=1;entryX=0;entryY=0.5;entryDx=0;entryDy=0;" edge="1" parent="joxAX7BLMsEu5LdcDJ3S-1" source="mP0kXm6_bTcr9osm08DT-0" target="mP0kXm6_bTcr9osm08DT-1">
          <mxGeometry relative="1" as="geometry" />
        </mxCell>
        <mxCell id="mP0kXm6_bTcr9osm08DT-0" value="LAMP SG" style="fillColor=none;strokeColor=#DD3522;verticalAlign=top;fontStyle=0;fontColor=#DD3522;whiteSpace=wrap;html=1;" vertex="1" parent="joxAX7BLMsEu5LdcDJ3S-1">
          <mxGeometry x="120" y="130" width="210" height="330" as="geometry" />
        </mxCell>
        <mxCell id="joxAX7BLMsEu5LdcDJ3S-17" value="&lt;font style=&quot;font-size: 20px;&quot;&gt;This Architecture will help you protect the data in case AZ failure&lt;/font&gt;" style="text;html=1;align=center;verticalAlign=middle;resizable=0;points=[];autosize=1;strokeColor=none;fillColor=none;" vertex="1" parent="joxAX7BLMsEu5LdcDJ3S-1">
          <mxGeometry x="105" y="525" width="590" height="40" as="geometry" />
        </mxCell>
        <mxCell id="lJ-S1TIfcddlWND224gh-0" value="" style="sketch=0;points=[[0,0,0],[0.25,0,0],[0.5,0,0],[0.75,0,0],[1,0,0],[0,1,0],[0.25,1,0],[0.5,1,0],[0.75,1,0],[1,1,0],[0,0.25,0],[0,0.5,0],[0,0.75,0],[1,0.25,0],[1,0.5,0],[1,0.75,0]];outlineConnect=0;fontColor=#232F3E;fillColor=#ED7100;strokeColor=#ffffff;dashed=0;verticalLabelPosition=bottom;verticalAlign=top;align=center;html=1;fontSize=12;fontStyle=0;aspect=fixed;shape=mxgraph.aws4.resourceIcon;resIcon=mxgraph.aws4.ec2;" vertex="1" parent="joxAX7BLMsEu5LdcDJ3S-1">
          <mxGeometry x="186" y="340" width="78" height="78" as="geometry" />
        </mxCell>
      </root>
    </mxGraphModel>
  </diagram>
  <diagram name="Aurora Cluster Architecture" id="O_2to4WjZwgt37s4RFwq">
    <mxGraphModel dx="954" dy="530" grid="1" gridSize="10" guides="1" tooltips="1" connect="1" arrows="1" fold="1" page="1" pageScale="1" pageWidth="827" pageHeight="1169" math="0" shadow="0">
      <root>
        <mxCell id="7JLm5pAj3P43opA7x6UZ-0" />
        <mxCell id="7JLm5pAj3P43opA7x6UZ-1" parent="7JLm5pAj3P43opA7x6UZ-0" />
        <mxCell id="7JLm5pAj3P43opA7x6UZ-2" value="VPC" style="points=[[0,0],[0.25,0],[0.5,0],[0.75,0],[1,0],[1,0.25],[1,0.5],[1,0.75],[1,1],[0.75,1],[0.5,1],[0.25,1],[0,1],[0,0.75],[0,0.5],[0,0.25]];outlineConnect=0;gradientColor=none;html=1;whiteSpace=wrap;fontSize=12;fontStyle=0;container=1;pointerEvents=0;collapsible=0;recursiveResize=0;shape=mxgraph.aws4.group;grIcon=mxgraph.aws4.group_vpc2;strokeColor=#8C4FFF;fillColor=none;verticalAlign=top;align=left;spacingLeft=30;fontColor=#AAB7B8;dashed=0;" parent="7JLm5pAj3P43opA7x6UZ-1" vertex="1">
          <mxGeometry x="70" y="50" width="670" height="450" as="geometry" />
        </mxCell>
        <mxCell id="7JLm5pAj3P43opA7x6UZ-3" value="1A" style="fillColor=none;strokeColor=#147EBA;dashed=1;verticalAlign=top;fontStyle=0;fontColor=#147EBA;whiteSpace=wrap;html=1;" parent="7JLm5pAj3P43opA7x6UZ-2" vertex="1">
          <mxGeometry x="100" y="40" width="170" height="370" as="geometry" />
        </mxCell>
        <mxCell id="7JLm5pAj3P43opA7x6UZ-4" value="1B" style="fillColor=none;strokeColor=#147EBA;dashed=1;verticalAlign=top;fontStyle=0;fontColor=#147EBA;whiteSpace=wrap;html=1;" parent="7JLm5pAj3P43opA7x6UZ-2" vertex="1">
          <mxGeometry x="360" y="40" width="170" height="370" as="geometry" />
        </mxCell>
        <mxCell id="7JLm5pAj3P43opA7x6UZ-5" value="" style="sketch=0;points=[[0,0,0],[0.25,0,0],[0.5,0,0],[0.75,0,0],[1,0,0],[0,1,0],[0.25,1,0],[0.5,1,0],[0.75,1,0],[1,1,0],[0,0.25,0],[0,0.5,0],[0,0.75,0],[1,0.25,0],[1,0.5,0],[1,0.75,0]];outlineConnect=0;fontColor=#232F3E;fillColor=#ED7100;strokeColor=#ffffff;dashed=0;verticalLabelPosition=bottom;verticalAlign=top;align=center;html=1;fontSize=12;fontStyle=0;aspect=fixed;shape=mxgraph.aws4.resourceIcon;resIcon=mxgraph.aws4.ec2;" parent="7JLm5pAj3P43opA7x6UZ-2" vertex="1">
          <mxGeometry x="146" y="80" width="78" height="78" as="geometry" />
        </mxCell>
        <mxCell id="7JLm5pAj3P43opA7x6UZ-7" style="edgeStyle=orthogonalEdgeStyle;rounded=0;orthogonalLoop=1;jettySize=auto;html=1;" parent="7JLm5pAj3P43opA7x6UZ-2" source="7JLm5pAj3P43opA7x6UZ-8" edge="1">
          <mxGeometry relative="1" as="geometry">
            <mxPoint x="185" y="260.09749556838324" as="targetPoint" />
          </mxGeometry>
        </mxCell>
        <mxCell id="j86Fr8OMY0TuIKZNMlRd-2" style="edgeStyle=orthogonalEdgeStyle;rounded=0;orthogonalLoop=1;jettySize=auto;html=1;exitX=0.5;exitY=1;exitDx=0;exitDy=0;" parent="7JLm5pAj3P43opA7x6UZ-2" source="7JLm5pAj3P43opA7x6UZ-8" target="j86Fr8OMY0TuIKZNMlRd-1" edge="1">
          <mxGeometry relative="1" as="geometry" />
        </mxCell>
        <mxCell id="7JLm5pAj3P43opA7x6UZ-8" value="Front End - PHP" style="whiteSpace=wrap;html=1;" parent="7JLm5pAj3P43opA7x6UZ-2" vertex="1">
          <mxGeometry x="125" y="158" width="120" height="60" as="geometry" />
        </mxCell>
        <mxCell id="7JLm5pAj3P43opA7x6UZ-12" value="" style="sketch=0;outlineConnect=0;fontColor=#232F3E;gradientColor=none;fillColor=#C925D1;strokeColor=none;dashed=0;verticalLabelPosition=bottom;verticalAlign=top;align=center;html=1;fontSize=12;fontStyle=0;aspect=fixed;pointerEvents=1;shape=mxgraph.aws4.rds_instance_alt;" parent="7JLm5pAj3P43opA7x6UZ-2" vertex="1">
          <mxGeometry x="406" y="90" width="78" height="78" as="geometry" />
        </mxCell>
        <mxCell id="7JLm5pAj3P43opA7x6UZ-13" value="Stand BY" style="whiteSpace=wrap;html=1;" parent="7JLm5pAj3P43opA7x6UZ-2" vertex="1">
          <mxGeometry x="385" y="168" width="120" height="60" as="geometry" />
        </mxCell>
        <mxCell id="R1prQ4iGf0cJb1-xSBxP-1" value="" style="rounded=0;whiteSpace=wrap;html=1;" parent="7JLm5pAj3P43opA7x6UZ-2" vertex="1">
          <mxGeometry x="70" y="260" width="540" height="130" as="geometry" />
        </mxCell>
        <mxCell id="FVhh6fScC-tDP8cTQKii-0" value="" style="sketch=0;outlineConnect=0;fontColor=#232F3E;gradientColor=none;fillColor=#C925D1;strokeColor=none;dashed=0;verticalLabelPosition=bottom;verticalAlign=top;align=center;html=1;fontSize=12;fontStyle=0;aspect=fixed;pointerEvents=1;shape=mxgraph.aws4.rds_instance;" parent="7JLm5pAj3P43opA7x6UZ-2" vertex="1">
          <mxGeometry x="156" y="260" width="64" height="64" as="geometry" />
        </mxCell>
        <mxCell id="j86Fr8OMY0TuIKZNMlRd-3" style="edgeStyle=orthogonalEdgeStyle;rounded=0;orthogonalLoop=1;jettySize=auto;html=1;entryX=0;entryY=0.5;entryDx=0;entryDy=0;" parent="7JLm5pAj3P43opA7x6UZ-2" source="FVhh6fScC-tDP8cTQKii-1" target="j86Fr8OMY0TuIKZNMlRd-0" edge="1">
          <mxGeometry relative="1" as="geometry" />
        </mxCell>
        <mxCell id="FVhh6fScC-tDP8cTQKii-1" value="Backend - DB" style="whiteSpace=wrap;html=1;" parent="7JLm5pAj3P43opA7x6UZ-2" vertex="1">
          <mxGeometry x="146" y="326" width="95" height="58" as="geometry" />
        </mxCell>
        <mxCell id="j86Fr8OMY0TuIKZNMlRd-0" value="Read Replicas" style="whiteSpace=wrap;html=1;" parent="7JLm5pAj3P43opA7x6UZ-2" vertex="1">
          <mxGeometry x="392.5" y="324" width="105" height="56" as="geometry" />
        </mxCell>
        <mxCell id="j86Fr8OMY0TuIKZNMlRd-1" value="" style="sketch=0;outlineConnect=0;fontColor=#232F3E;gradientColor=none;fillColor=#C925D1;strokeColor=none;dashed=0;verticalLabelPosition=bottom;verticalAlign=top;align=center;html=1;fontSize=12;fontStyle=0;aspect=fixed;pointerEvents=1;shape=mxgraph.aws4.rds_instance_alt;" parent="7JLm5pAj3P43opA7x6UZ-2" vertex="1">
          <mxGeometry x="413" y="260" width="64" height="64" as="geometry" />
        </mxCell>
        <mxCell id="j86Fr8OMY0TuIKZNMlRd-4" style="edgeStyle=orthogonalEdgeStyle;rounded=0;orthogonalLoop=1;jettySize=auto;html=1;entryX=0.118;entryY=0.378;entryDx=0;entryDy=0;entryPerimeter=0;" parent="7JLm5pAj3P43opA7x6UZ-2" source="FVhh6fScC-tDP8cTQKii-1" target="7JLm5pAj3P43opA7x6UZ-4" edge="1">
          <mxGeometry relative="1" as="geometry" />
        </mxCell>
        <mxCell id="HGoby1fEtWOTrstYIgKf-1" value="Cluster" style="text;html=1;align=center;verticalAlign=middle;resizable=0;points=[];autosize=1;strokeColor=none;fillColor=none;" parent="7JLm5pAj3P43opA7x6UZ-2" vertex="1">
          <mxGeometry x="540" y="270" width="60" height="30" as="geometry" />
        </mxCell>
        <mxCell id="HGoby1fEtWOTrstYIgKf-0" value="&lt;font style=&quot;font-size: 20px;&quot;&gt;Cluster will maintain a primary and Read Replica&lt;/font&gt;" style="text;html=1;align=center;verticalAlign=middle;resizable=0;points=[];autosize=1;strokeColor=none;fillColor=none;" parent="7JLm5pAj3P43opA7x6UZ-1" vertex="1">
          <mxGeometry x="175" y="525" width="450" height="40" as="geometry" />
        </mxCell>
      </root>
    </mxGraphModel>
  </diagram>
</mxfile>
